<svg width="13" height="13" viewBox="0 0 13 13" fill="none" xmlns="http://www.w3.org/2000/svg">
<path fill-rule="evenodd" clip-rule="evenodd" d="M0 6.125C0 2.74258 2.74258 0 6.125 0C9.50742 0 12.25 2.74258 12.25 6.125C12.25 9.50742 9.50742 12.25 6.125 12.25C2.74258 12.25 0 9.50742 0 6.125ZM1.03906 6.125C1.03906 8.9332 3.3168 11.2109 6.125 11.2109C8.9332 11.2109 11.2109 8.9332 11.2109 6.125C11.2109 3.3168 8.9332 1.03906 6.125 1.03906C3.3168 1.03906 1.03906 3.3168 1.03906 6.125ZM5.66075 4.18279C5.53768 4.05972 5.46854 3.8928 5.46854 3.71875C5.46854 3.5447 5.53768 3.37778 5.66075 3.25471C5.78382 3.13164 5.95074 3.0625 6.12479 3.0625C6.29883 3.0625 6.46575 3.13164 6.58883 3.25471C6.7119 3.37778 6.78104 3.5447 6.78104 3.71875C6.78104 3.8928 6.7119 4.05972 6.58883 4.18279C6.46575 4.30586 6.29883 4.375 6.12479 4.375C5.95074 4.375 5.78382 4.30586 5.66075 4.18279ZM5.68729 5.35938C5.68729 5.29922 5.73651 5.25 5.79666 5.25H6.45291C6.51307 5.25 6.56229 5.29922 6.56229 5.35938V9.07812C6.56229 9.13828 6.51307 9.1875 6.45291 9.1875H5.79666C5.73651 9.1875 5.68729 9.13828 5.68729 9.07812V5.35938Z" fill="#BFBFBF"/>
</svg>
